<svg width="34" height="34" viewBox="0 0 45 45" fill="none" xmlns="http://www.w3.org/2000/svg">
<path d="M17.745 0.486908C16.6113 0.790739 15.2463 1.18806 14.7373 1.3984C11.5907 2.56698 7.79635 5.13785 5.57526 7.56849C4.3953 8.8773 2.12793 12.1727 2.12793 12.57C2.12793 12.6869 5.1588 12.7804 8.83749 12.7804H15.547V16.6367V20.493L16.7964 21.3343C17.4905 21.8018 18.1615 22.1056 18.2771 22.0355C18.416 21.9654 20.0818 19.7451 22.0252 17.1041L25.5651 12.3129H27.6243C28.7579 12.3129 29.6603 12.4064 29.614 12.5233C29.5909 12.6401 27.578 14.9539 25.1487 17.665C22.7425 20.3761 20.7296 22.6899 20.6833 22.8068C20.6602 22.9002 22.3029 24.8868 24.362 27.224L28.087 31.4776H29.7297H31.3724L30.7939 30.8232C23.7373 22.9704 23.8299 23.0872 24.1538 22.6432C24.3158 22.4094 26.6988 19.5114 29.4289 16.1926C32.159 12.8972 34.4495 10.0926 34.4726 9.97576C34.5189 9.83554 32.7374 9.74205 29.6834 9.74205H24.8016L21.5625 13.8554L18.3234 17.9688V14.0892V10.2095H13.002C10.0869 10.2095 7.68067 10.116 7.68067 9.99914C7.68067 9.57845 11.1743 6.47003 12.6781 5.58191C24.5471 -1.52304 39.4932 5.30145 42.0614 18.9972C42.7092 22.5497 42.2465 26.6864 40.812 30.2623L40.303 31.501L41.8531 31.4309L43.3802 31.3607L43.8197 30.0753C44.7221 27.3876 44.9997 25.588 44.9997 22.3627C44.9766 19.7685 44.884 18.8102 44.3982 16.9639C42.9406 11.3313 39.6089 6.63363 34.8197 3.43173C33.1307 2.30989 30.2618 0.977711 28.9662 0.720625C28.596 0.627138 28.2721 0.510281 28.2721 0.416794C28.2721 0.22982 27.8093 0.183079 23.5291 0.0428486C20.1512 -0.0506382 19.6422 -0.0272655 17.745 0.486908Z" fill="black"/>
<path d="M0.925457 15.6318C0.231364 17.8988 0 19.5815 0 22.3394C0.0231364 28.5095 2.2211 33.9317 6.50133 38.2788C16.6119 48.5155 33.2933 46.8328 41.2522 34.7731C41.6224 34.2121 41.8769 33.698 41.8306 33.6512C41.7844 33.6045 38.1751 33.5344 33.8254 33.511L25.8665 33.4643L21.8639 28.5562C19.666 25.8451 17.7919 23.6482 17.6994 23.6482C17.5837 23.6716 17.1209 23.8585 16.6582 24.1156L15.779 24.5597V29.0704V33.6045L14.4603 33.5344L13.1183 33.4643L13.0489 24.1624L13.0027 14.8839H11.7302H10.4577L10.5039 25.2141L10.5733 35.5677L14.3446 35.6378L18.0927 35.6846V31.8282C18.0927 29.7014 18.1621 27.9719 18.2778 27.9953C18.3703 27.9953 19.8973 29.7248 21.6557 31.8516L24.8716 35.6846H31.0259H37.1571L36.1391 36.7596C35.5607 37.3439 34.4964 38.2554 33.756 38.7462C32.0902 39.9148 29.175 41.3405 28.7817 41.1769C28.6197 41.1068 28.5272 41.1535 28.5966 41.247C28.666 41.3638 27.9025 41.6443 26.9308 41.9014C24.1313 42.6025 19.5734 42.4857 16.8202 41.6677C9.74043 39.5175 4.55787 33.9551 2.96146 26.8034C2.05914 22.7835 2.38305 18.7635 3.91005 14.7436C4.0026 14.4865 3.72496 14.4164 2.66069 14.4164H1.29564L0.925457 15.6318Z" fill="white"/>
</svg>
