<svg width="241" height="241" viewBox="0 0 241 241" fill="none" xmlns="http://www.w3.org/2000/svg">
<circle cx="120.5" cy="120.5" r="120.5" fill="black"/>
<path d="M87.6999 219.555C88.1783 217.304 88.9982 215.445 90.1595 213.979C91.3208 212.512 92.7045 211.485 94.3108 210.897C95.917 210.309 97.6301 210.208 99.4503 210.595C101.27 210.982 102.795 211.771 104.023 212.961C105.251 214.151 106.097 215.653 106.562 217.465C107.026 219.277 107.019 221.309 106.54 223.56C106.062 225.811 105.242 227.669 104.081 229.136C102.919 230.603 101.536 231.63 99.9295 232.218C98.3233 232.806 96.6101 232.907 94.79 232.52C92.9699 232.133 91.4457 231.344 90.2175 230.154C88.9893 228.963 88.1431 227.462 87.6787 225.65C87.2144 223.838 87.2215 221.806 87.6999 219.555ZM90.2009 220.087C89.8081 221.935 89.7857 223.56 90.1338 224.963C90.4749 226.364 91.1005 227.503 92.0107 228.379C92.914 229.253 94.0117 229.828 95.3039 230.102C96.596 230.377 97.836 230.299 99.0238 229.869C100.205 229.438 101.239 228.652 102.128 227.512C103.009 226.371 103.647 224.876 104.039 223.028C104.432 221.18 104.458 219.556 104.117 218.154C103.769 216.752 103.143 215.613 102.24 214.739C101.33 213.863 100.229 213.287 98.9364 213.013C97.6443 212.738 96.4077 212.816 95.2269 213.248C94.0391 213.678 93.0044 214.464 92.1228 215.605C91.2343 216.745 90.5936 218.239 90.2009 220.087Z" fill="white"/>
<path d="M70.4893 199.473L57.6649 217.124L51.7007 212.791C50.316 211.785 49.3656 210.713 48.8497 209.574C48.3239 208.437 48.1552 207.292 48.3437 206.138C48.5321 204.985 49.0042 203.888 49.7598 202.848C50.5154 201.808 51.4147 201.017 52.4577 200.476C53.495 199.93 54.6369 199.724 55.8834 199.857C57.1257 199.996 58.4335 200.564 59.8067 201.562L64.0817 204.668L62.704 206.564L58.4981 203.508C57.55 202.819 56.6697 202.43 55.8572 202.34C55.0446 202.25 54.3066 202.39 53.6431 202.759C52.9697 203.13 52.3762 203.669 51.8628 204.376C51.3493 205.083 51.0222 205.811 50.8816 206.56C50.7352 207.305 50.8374 208.047 51.1881 208.784C51.5347 209.528 52.1877 210.248 53.1473 210.945L56.9051 213.675L68.3519 197.92L70.4893 199.473Z" fill="white"/>
<path d="M42.4871 172.476L23.592 183.385L17.0082 171.981L19.0379 170.809L24.3007 179.925L30.6852 176.239L25.7633 167.714L27.793 166.542L32.7149 175.067L39.1363 171.359L33.7883 162.096L35.818 160.925L42.4871 172.476Z" fill="white"/>
<path d="M4.84897 123.798L26.5476 121.517L26.8149 124.06L11.0208 137.675L11.0431 137.887L28.0799 136.096L28.3561 138.724L6.65744 141.004L6.39017 138.462L22.2222 124.8L22.1999 124.588L5.12069 126.383L4.84897 123.798Z" fill="white"/>
<path d="M22.9685 84.7749L25.1975 85.4992L22.2478 94.5775L20.0188 93.8532L22.9685 84.7749Z" fill="white"/>
<path d="M46.5077 64.019L30.2936 49.4198L39.0475 39.6977L40.7892 41.2659L33.8033 49.0246L39.2818 53.9576L45.612 46.9272L47.3537 48.4955L41.0236 55.5258L48.2756 62.0556L46.5077 64.019Z" fill="white"/>
<path d="M86.3931 22.8695C87.329 24.9717 87.7583 26.9574 87.6809 28.8266C87.6036 30.6958 87.088 32.3403 86.1341 33.7601C85.1803 35.1799 83.8534 36.2683 82.1535 37.0251C80.4535 37.782 78.7569 38.0398 77.0635 37.7986C75.3702 37.5574 73.8031 36.8402 72.3622 35.647C70.9213 34.4537 69.7329 32.806 68.7969 30.7038C67.861 28.6016 67.4317 26.6159 67.5091 24.7467C67.5865 22.8775 68.1021 21.233 69.0559 19.8132C70.0098 18.3934 71.3366 17.3051 73.0366 16.5482C74.7365 15.7914 76.4331 15.5335 78.1265 15.7747C79.8198 16.0159 81.387 16.7331 82.8278 17.9264C84.2687 19.1196 85.4571 20.7673 86.3931 22.8695ZM84.0573 23.9095C83.2889 22.1836 82.3516 20.8555 81.2455 19.9253C80.1459 18.9921 78.9705 18.4387 77.7192 18.265C76.4745 18.0884 75.2487 18.2688 74.0418 18.8061C72.835 19.3434 71.8775 20.1351 71.1693 21.1812C70.4677 22.2244 70.0924 23.4683 70.0436 24.9127C70.0013 26.3543 70.3643 27.938 71.1327 29.6639C71.9011 31.3897 72.8351 32.7192 73.9347 33.6524C75.0408 34.5826 76.2163 35.1361 77.4611 35.3126C78.7123 35.4863 79.9414 35.3045 81.1482 34.7672C82.355 34.2299 83.3092 33.4396 84.0109 32.3964C84.7191 31.3503 85.0944 30.1065 85.1367 28.665C85.1855 27.2205 84.8257 25.6353 84.0573 23.9095Z" fill="white"/>
<path d="M112.047 29V7.18182L119.419 7.18182C121.124 7.18182 122.523 7.47301 123.617 8.0554C124.711 8.63068 125.52 9.42258 126.046 10.4311C126.571 11.4396 126.834 12.5866 126.834 13.8722C126.834 15.1577 126.571 16.2976 126.046 17.2919C125.52 18.2862 124.714 19.0675 123.628 19.6357C122.541 20.1967 121.152 20.4773 119.462 20.4773L113.496 20.4773V18.0909L119.377 18.0909C120.542 18.0909 121.479 17.9205 122.189 17.5795C122.907 17.2386 123.425 16.7557 123.745 16.1307C124.071 15.4986 124.235 14.7457 124.235 13.8722C124.235 12.9986 124.071 12.2351 123.745 11.5817C123.418 10.9283 122.896 10.424 122.179 10.0689C121.461 9.70668 120.513 9.52557 119.334 9.52557H114.689V29H112.047ZM122.317 19.1989L127.687 29H124.618L119.334 19.1989H122.317Z" fill="white"/>
<path d="M165.065 29.2811L164.111 31.4222L155.391 27.5397L156.344 25.3986L165.065 29.2811Z" fill="white"/>
<path d="M204.73 56.3037L202.962 54.3403C203.422 53.7157 203.735 53.0657 203.902 52.3905C204.072 51.7206 204.118 51.049 204.037 50.376C203.967 49.7034 203.782 49.0526 203.483 48.4234C203.184 47.7942 202.793 47.2104 202.308 46.672C201.424 45.6903 200.375 45.0243 199.161 44.6741C197.952 44.3291 196.653 44.3566 195.265 44.7565C193.88 45.1617 192.486 45.9964 191.083 47.2605C189.679 48.5246 188.703 49.8238 188.155 51.1579C187.612 52.4973 187.449 53.7863 187.666 55.0247C187.887 56.2684 188.44 57.3811 189.324 58.3628C189.809 58.9012 190.348 59.3519 190.943 59.715C191.537 60.078 192.163 60.3321 192.819 60.4771C193.485 60.6227 194.16 60.6455 194.844 60.5455C195.539 60.4461 196.218 60.2026 196.882 59.815L198.65 61.7784C197.688 62.3767 196.704 62.7753 195.698 62.974C194.692 63.1727 193.698 63.1885 192.716 63.0214C191.739 62.8495 190.806 62.5089 189.918 61.9997C189.034 61.4957 188.224 60.8347 187.487 60.0166C186.242 58.6338 185.473 57.0999 185.179 55.4148C184.885 53.7298 185.083 52.0178 185.772 50.2787C186.462 48.5396 187.662 46.9002 189.372 45.3604C191.082 43.8207 192.838 42.7988 194.639 42.2948C196.441 41.7907 198.164 41.7729 199.809 42.2413C201.454 42.7098 202.899 43.6354 204.145 45.0182C204.881 45.8363 205.454 46.7112 205.863 47.6429C206.276 48.5798 206.515 49.5453 206.578 50.5393C206.647 51.5286 206.53 52.5132 206.227 53.4931C205.93 54.4682 205.431 55.405 204.73 56.3037Z" fill="white"/>
<path d="M220.001 98.8291C217.813 99.5402 215.793 99.7596 213.942 99.4873C212.091 99.2149 210.51 98.5302 209.197 97.4332C207.885 96.3362 206.941 94.9028 206.366 93.1331C205.791 91.3634 205.712 89.6491 206.129 87.9902C206.546 86.3313 207.423 84.8477 208.76 83.5395C210.098 82.2312 211.861 81.2216 214.049 80.5105C216.238 79.7994 218.257 79.58 220.108 79.8524C221.959 80.1247 223.541 80.8094 224.853 81.9064C226.165 83.0034 227.109 84.4368 227.684 86.2065C228.259 87.9763 228.338 89.6906 227.921 91.3494C227.504 93.0083 226.627 94.4919 225.29 95.8001C223.953 97.1084 222.19 98.118 220.001 98.8291ZM219.211 96.3975C221.008 95.8137 222.427 95.0204 223.467 94.0176C224.51 93.0215 225.184 91.9104 225.487 90.6841C225.793 89.4646 225.742 88.2267 225.333 86.9703C224.925 85.7139 224.238 84.6789 223.272 83.8653C222.307 83.0584 221.11 82.5552 219.678 82.3556C218.249 82.1629 216.636 82.3584 214.839 82.9422C213.043 83.526 211.623 84.3159 210.58 85.3119C209.539 86.3147 208.866 87.4259 208.56 88.6454C208.256 89.8716 208.309 91.1129 208.717 92.3693C209.125 93.6257 209.811 94.6573 210.776 95.4642C211.742 96.2779 212.94 96.7811 214.369 96.9738C215.8 97.1734 217.414 96.9812 219.211 96.3975Z" fill="white"/>
<path d="M211.05 125.35L232.748 127.631L232.472 130.258L213.104 128.223L212.044 138.309L209.713 138.064L211.05 125.35Z" fill="white"/>
<path d="M201.322 162.414L220.217 173.323L218.896 175.611L202.031 165.874L196.96 174.657L194.93 173.485L201.322 162.414Z" fill="white"/>
<path d="M178.011 191.844L180.252 190.216L186.595 212.576L184.389 214.179L165.083 201.237L167.324 199.609L183.394 210.635L183.532 210.535L178.011 191.844ZM182.193 199.34L173.161 205.903L171.783 204.007L180.816 197.444L182.193 199.34Z" fill="white"/>
<path d="M145.086 209.511L149.622 230.852L142.161 232.438C140.675 232.754 139.394 232.757 138.319 232.449C137.246 232.147 136.381 231.615 135.726 230.854C135.072 230.1 134.634 229.202 134.412 228.16C134.217 227.243 134.22 226.451 134.419 225.784C134.612 225.119 134.935 224.556 135.389 224.097C135.836 223.639 136.348 223.261 136.924 222.965L136.88 222.756C136.218 222.853 135.512 222.764 134.764 222.487C134.015 222.211 133.336 221.731 132.726 221.047C132.116 220.363 131.691 219.459 131.452 218.333C131.225 217.264 131.263 216.25 131.568 215.292C131.873 214.334 132.496 213.494 133.439 212.77C134.382 212.047 135.694 211.507 137.375 211.15L145.086 209.511ZM142.989 212.352L137.862 213.442C136.174 213.801 135.045 214.382 134.475 215.186C133.9 215.998 133.712 216.873 133.911 217.811C134.065 218.533 134.391 219.161 134.889 219.694C135.389 220.234 136.018 220.616 136.777 220.839C137.538 221.07 138.383 221.086 139.314 220.888L144.566 219.772L142.989 212.352ZM145.045 222.023L140.251 223.042C139.473 223.207 138.804 223.509 138.244 223.948C137.677 224.388 137.268 224.925 137.018 225.559C136.761 226.194 136.712 226.887 136.872 227.637C137.071 228.575 137.566 229.301 138.358 229.815C139.152 230.337 140.257 230.447 141.674 230.145L146.551 229.109L145.045 222.023Z" fill="white"/>
<path d="M102.644 38.8398C98.3866 39.9878 93.2601 41.4891 91.3486 42.2839C79.5316 46.6994 65.2817 56.4135 56.9403 65.5977C52.509 70.5431 43.9938 82.9948 43.9938 84.496C43.9938 84.9376 55.3763 85.2908 69.1917 85.2908H94.3897V99.862V114.433L99.0817 117.612C101.688 119.378 104.208 120.527 104.643 120.262C105.164 119.997 111.42 111.607 118.719 101.628L132.013 83.5246H139.746C144.004 83.5246 147.392 83.8779 147.219 84.3194C147.132 84.761 139.572 93.5037 130.449 103.748C121.412 113.992 113.853 122.734 113.679 123.176C113.592 123.529 119.761 131.035 127.495 139.866L141.484 155.939H147.653H153.822L151.65 153.466C125.149 123.794 125.496 124.236 126.713 122.558C127.321 121.675 136.27 110.724 146.523 98.1841C156.776 85.7324 165.378 75.1352 165.465 74.6936C165.639 74.1638 158.949 73.8105 147.479 73.8105H129.145L116.981 89.3531L104.816 104.896V90.2362V75.5767H84.8319C73.8838 75.5767 64.8473 75.2235 64.8473 74.7819C64.8473 73.1923 77.9676 61.4471 83.6154 58.0913C128.19 31.2451 184.32 57.0316 193.965 108.781C196.398 122.204 194.66 137.835 189.273 151.347L187.361 156.027L193.183 155.762L198.918 155.497L200.569 150.64C203.957 140.485 205 133.685 205 121.498C204.913 111.696 204.566 108.075 202.741 101.098C197.267 79.8156 184.755 62.0653 166.769 49.9668C160.426 45.7279 149.651 40.6943 144.786 39.7229C143.395 39.3696 142.229 39.193 142.229 38.8398C142.229 39.1047 140.441 37.6917 124.367 37.1619C111.681 36.8086 109.769 36.8969 102.644 38.8398Z" fill="white"/>
<path d="M39.4756 95.0313C36.8689 103.597 36 109.956 36 120.376C36.0869 143.69 44.3414 164.178 60.4159 180.604C98.3867 219.283 161.034 212.925 190.924 167.357C192.314 165.238 193.27 163.295 193.096 163.118C192.922 162.942 179.368 162.677 163.032 162.588L133.142 162.412L118.111 143.867C109.856 133.623 102.818 125.322 102.47 125.322C102.036 125.41 100.298 126.116 98.5604 127.088L95.2586 128.766V145.81V162.942L90.3059 162.677L85.2663 162.412L85.0057 127.264L84.8319 92.2053H80.053H75.274L75.4478 131.238L75.7085 170.36L89.8715 170.625L103.948 170.801V156.23C103.948 148.194 104.208 141.659 104.643 141.747C104.99 141.747 110.725 148.282 117.329 156.318L129.406 170.801H152.519H175.545L171.721 174.863C169.549 177.071 165.552 180.515 162.772 182.37C156.516 186.785 146.661 191.426 144.643 191.426C144.643 190.03 144.643 192.459 144.643 191.426C144.643 192.237 140.789 193.32 137.139 194.292C126.626 196.941 109.509 196.499 99.1687 193.409C72.5805 185.284 53.1172 164.266 47.1219 137.243C43.7332 122.054 44.9496 106.865 50.6843 91.6755C51.0319 90.7041 49.9892 90.4391 45.9923 90.4391H40.8658L39.4756 95.0313Z" fill="#9A9A9A"/>
</svg>
